<svg xmlns="http://www.w3.org/2000/svg" width="150" height="28" role="img" aria-label="TAILWIND">
  <title>TAILWIND</title>
  <rect width="200" height="29" fill="#38BDF8" rx="4"/>
  <g transform="translate(8, 7)">
    <path fill="#fff" d="M12 0C7 0 4 3 4 6c0 0 3 0 3-2s1.5-3 3-3 3 1.5 3 3-1 2-3 3c-3 1-4 3-4 5s2 4 4 4c3 0 4-2 4-4 0 0-3 0-3 2s-1.5 3-3 3-3-1.5-3-3 1-2 3-3c3-1 4-3 4-5s-2-4-4-4z" transform="scale(1.5)" />
  </g>
  <text x="40" y="19" font-size="12" font-family="Verdana, Geneva, sans-serif" fill="#fff" font-weight="bold">TAILWIND</text>
</svg>
